<?xml version="1.0" encoding="iso-8859-1"?>
<!-- Generator: Adobe Illustrator 19.0.0, SVG Export Plug-In . SVG Version: 6.00 Build 0)  -->
<svg version="1.1" id="Layer_1" xmlns="http://www.w3.org/2000/svg" xmlns:xlink="http://www.w3.org/1999/xlink" x="0px" y="0px"
	 viewBox="0 0 512 512" style="enable-background:new 0 0 512 512;" xml:space="preserve">
<path style="fill:#F8F8F8;" d="M424.725,415.125c-138.148,0-250.133-111.989-250.133-250.133
	c0-59.102,20.613-113.321,54.888-156.127C117.307,33.561,33.314,133.406,33.314,253.002c0,138.142,111.985,250.133,250.133,250.133
	c79.039,0,149.403-36.757,195.24-94.006C461.289,412.96,443.272,415.125,424.725,415.125z"/>
<g>
	<circle style="fill:#E0E0E3;" cx="237.122" cy="412.038" r="27.792"/>
	<circle style="fill:#E0E0E3;" cx="137.531" cy="285.428" r="23.16"/>
	<circle style="fill:#E0E0E3;" cx="101.246" cy="226.756" r="19.3"/>
	<path style="fill:#E0E0E3;" d="M174.562,168.998c-0.018,0-0.037-0.006-0.059-0.006c-20.89,0-37.826,16.937-37.826,37.829
		s16.936,37.829,37.826,37.829c4.293,0,8.346-0.87,12.191-2.185C179.154,219.272,174.955,194.61,174.562,168.998z"/>
	<path style="fill:#E0E0E3;" d="M293.026,502.932c1.711-0.065,3.424-0.124,5.127-0.223c0.635-0.037,1.262-0.096,1.896-0.137
		c1.797-0.118,3.593-0.235,5.378-0.391c0.496-0.044,0.988-0.105,1.483-0.151c1.914-0.178,3.826-0.362,5.727-0.584
		c0.522-0.061,1.038-0.141,1.559-0.204c1.87-0.23,3.738-0.463,5.595-0.735c0.325-0.047,0.645-0.108,0.969-0.156
		c2.047-0.307,4.09-0.628,6.119-0.985c0.189-0.033,0.376-0.074,0.565-0.108c2.162-0.384,4.315-0.791,6.458-1.23
		c0.043-0.009,0.085-0.02,0.129-0.028c58.029-11.954,108.676-44.061,144.449-88.621c-17.093,3.691-34.791,5.747-52.987,5.747
		c-0.098,0-0.196-0.006-0.294-0.007c-0.158,0-0.316,0.007-0.475,0.007c-3.424,0-6.827-0.089-10.217-0.225
		c-38.742,40.059-92.938,65.073-153.064,65.073c-117.684,0-213.075-95.397-213.075-213.075c0-94.785,61.919-175.052,147.49-202.719
		c8.824-19.932,20.165-38.505,33.623-55.314C133.083,30.087,57.497,106.809,38.143,203.869c-0.012,0.061-0.022,0.124-0.035,0.186
		c-0.338,1.701-0.661,3.408-0.963,5.121c-0.037,0.204-0.066,0.411-0.102,0.616c-0.274,1.573-0.539,3.15-0.784,4.733
		c-0.05,0.324-0.091,0.651-0.141,0.976c-0.221,1.468-0.437,2.937-0.632,4.413c-0.056,0.422-0.1,0.847-0.154,1.269
		c-0.176,1.383-0.351,2.767-0.504,4.158c-0.06,0.548-0.106,1.102-0.164,1.651c-0.131,1.269-0.265,2.538-0.377,3.812
		c-0.063,0.709-0.108,1.422-0.164,2.132c-0.089,1.122-0.184,2.241-0.259,3.366c-0.06,0.908-0.1,1.82-0.15,2.73
		c-0.052,0.934-0.112,1.865-0.154,2.802c-0.052,1.191-0.083,2.388-0.118,3.582c-0.02,0.662-0.051,1.32-0.065,1.983
		c-0.041,1.862-0.061,3.728-0.061,5.6c0,138.142,111.985,250.133,250.133,250.133c2.468,0,4.928-0.037,7.379-0.108
		C291.561,503.006,292.292,502.959,293.026,502.932z"/>
</g>
<g>
	<path style="fill:#1C2042;" d="M82.619,103.706c1.636,1.312,3.594,1.949,5.541,1.949c2.597,0,5.17-1.136,6.92-3.319
		c1.338-1.668,2.724-3.35,4.12-4.998c3.164-3.736,2.7-9.33-1.037-12.493c-3.736-3.165-9.33-2.7-12.493,1.037
		c-1.496,1.767-2.983,3.571-4.42,5.362C78.187,95.065,78.799,100.643,82.619,103.706z"/>
	<path style="fill:#1C2042;" d="M486.215,404.449c-1.984-3.191-5.763-4.792-9.434-3.976c-17.444,3.841-34.958,5.788-52.055,5.788
		c-133.036,0-241.268-108.232-241.268-241.268c0-55.257,18.307-107.329,52.943-150.586c2.349-2.932,2.593-7.028,0.609-10.219
		c-1.983-3.192-5.764-4.792-9.434-3.977c-42.737,9.407-82.736,29.768-115.671,58.881c-3.669,3.242-4.014,8.843-0.771,12.512
		c3.241,3.669,8.843,4.014,12.512,0.771c24.456-21.618,53.087-38.054,83.854-48.272c-27.405,41.94-41.772,90.166-41.772,140.89
		c0,69.18,26.94,134.221,75.857,183.138c48.918,48.92,113.958,75.86,183.14,75.86c10.112,0,20.351-0.632,30.629-1.886
		c-45.245,46.138-106.646,72.167-171.908,72.167c-133.035,0-241.267-108.232-241.267-241.268c0-34.597,7.17-67.983,21.312-99.231
		c2.019-4.459,0.039-9.712-4.422-11.731c-4.461-2.019-9.713-0.039-11.731,4.422c-15.188,33.56-22.888,69.406-22.888,106.541
		c0,69.18,26.94,134.221,75.857,183.138C149.224,485.059,214.264,512,283.446,512c78.95,0,152.635-35.476,202.16-97.331
		C487.955,411.737,488.199,407.641,486.215,404.449z"/>
</g>
<g>
</g>
<g>
</g>
<g>
</g>
<g>
</g>
<g>
</g>
<g>
</g>
<g>
</g>
<g>
</g>
<g>
</g>
<g>
</g>
<g>
</g>
<g>
</g>
<g>
</g>
<g>
</g>
<g>
</g>
</svg>
