<?xml version="1.0" encoding="iso-8859-1"?>
<!-- Generator: Adobe Illustrator 19.0.0, SVG Export Plug-In . SVG Version: 6.00 Build 0)  -->
<svg version="1.1" id="Layer_1" xmlns="http://www.w3.org/2000/svg" xmlns:xlink="http://www.w3.org/1999/xlink" x="0px" y="0px"
	 viewBox="0 0 512 512" style="enable-background:new 0 0 512 512;" xml:space="preserve">
<path style="fill:#9DF1FD;" d="M270.47,80.696c-3.228-5.565-8.904-8.348-14.47-8.348c-5.565,0-11.242,2.783-14.47,8.348
	l-86.817,150.372c-10.24,17.586-15.583,37.843-15.583,58.323c0,64.445,52.424,116.87,116.87,116.87s116.87-52.424,116.87-116.87
	C372.87,248.877,363.63,241.976,270.47,80.696z"/>
<path style="fill:#87D7E4;" d="M372.87,289.391c0,64.445-52.424,116.87-116.87,116.87V72.348c5.565,0,11.242,2.783,14.47,8.348
	C363.63,241.976,372.87,248.877,372.87,289.391z"/>
<path style="fill:#E7ECFD;" d="M272.696,322.783c0,9.238-7.456,16.696-16.696,16.696c-27.603,0-50.087-22.483-50.087-50.087
	c0-8.904,2.226-17.363,6.678-24.932c4.563-8.014,14.803-10.685,22.817-6.122c7.903,4.564,10.685,14.803,6.009,22.817
	c-1.446,2.56-2.114,5.231-2.114,8.237c0,9.238,7.456,16.696,16.696,16.696S272.696,313.544,272.696,322.783z"/>
<g>
	<path style="fill:#7CCC92;" d="M512,256c0,141.134-114.867,256-256,256c-68.674,0-133.677-27.603-181.315-75.464v19.812
		c0,9.238-7.456,16.696-16.696,16.696c-9.238,0-16.696-7.457-16.696-16.696v-63.221c-2.226-11.02,6.679-20.257,16.696-20.257h66.783
		c9.239,0,16.696,7.457,16.696,16.696c0,9.238-7.456,16.696-16.696,16.696H92.049c41.85,45.746,101.064,72.348,163.951,72.348
		c122.769,0,222.609-99.84,222.609-222.609c0-21.148-3.005-42.073-8.793-62.108c-2.56-8.904,2.449-18.143,11.353-20.703
		c8.793-2.56,18.143,2.56,20.704,11.353C508.548,207.694,512,231.736,512,256z"/>
	<path style="fill:#7CCC92;" d="M473.043,55.652v66.783c0,8.904-6.568,16.696-18.475,16.696c-0.111,0-0.111,0-0.111,0h-64.892
		c-9.239,0-16.696-7.457-16.696-16.696s7.456-16.696,16.696-16.696h30.386C378.101,59.993,318.887,33.391,256,33.391
		c-122.769,0-222.609,99.84-222.609,222.609c0,21.148,3.005,42.073,8.793,62.108c2.56,8.904-2.449,18.143-11.353,20.703
		c-1.558,0.445-3.117,0.668-4.675,0.668c-7.235,0-13.913-4.786-16.029-12.021C3.452,304.306,0,280.264,0,256
		C0,114.866,114.867,0,256,0c69.899,0,135.791,28.494,183.652,77.913V55.652c0-9.238,7.456-16.696,16.696-16.696
		C465.587,38.957,473.043,46.414,473.043,55.652z"/>
</g>
<path style="fill:#DADFF0;" d="M272.696,322.783c0,9.238-7.456,16.696-16.696,16.696v-33.391
	C265.239,306.087,272.696,313.544,272.696,322.783z"/>
<g>
	<path style="fill:#34B772;" d="M512,256c0,141.134-114.867,256-256,256v-33.391c122.769,0,222.609-99.84,222.609-222.609
		c0-21.148-3.005-42.073-8.793-62.108c-2.56-8.904,2.449-18.143,11.353-20.703c8.793-2.56,18.143,2.56,20.704,11.353
		C508.548,207.694,512,231.736,512,256z"/>
	<path style="fill:#34B772;" d="M473.043,55.652v66.783c0,8.904-6.568,16.696-18.475,16.696c-0.111,0-0.111,0-0.111,0h-64.892
		c-9.239,0-16.696-7.457-16.696-16.696s7.456-16.696,16.696-16.696h30.386C378.101,59.993,318.887,33.391,256,33.391V0
		c69.899,0,135.791,28.494,183.652,77.913V55.652c0-9.238,7.456-16.696,16.696-16.696C465.587,38.957,473.043,46.414,473.043,55.652
		z"/>
</g>
<g>
</g>
<g>
</g>
<g>
</g>
<g>
</g>
<g>
</g>
<g>
</g>
<g>
</g>
<g>
</g>
<g>
</g>
<g>
</g>
<g>
</g>
<g>
</g>
<g>
</g>
<g>
</g>
<g>
</g>
</svg>
